PathFileType	4	(X/Y/Z)	60_1_12_p1_0-209_filt_butterworth.trc
DataRate	CameraRate	NumFrames	NumMarkers	Units	OrigDataRate	OrigDataStartFrame	OrigNumFrames
46.0	46.0	5	27	m	46.0	26	209
Frame#	Time	RHip			RKnee			RAnkle			RBigToe			RSmallToe			RHeel			LHip			LKnee			LAnkle			LBigToe			LSmallToe			LHeel			Neck			Head			Nose			RShoulder			RElbow			RWrist			RThumb			RIndex			RPinky			LShoulder			LElbow			LWrist			LThumb			LIndex			LPinky			
		X1	Y1	Z1	X2	Y2	Z2	X3	Y3	Z3	X4	Y4	Z4	X5	Y5	Z5	X6	Y6	Z6	X7	Y7	Z7	X8	Y8	Z8	X9	Y9	Z9	X10	Y10	Z10	X11	Y11	Z11	X12	Y12	Z12	X13	Y13	Z13	X14	Y14	Z14	X15	Y15	Z15	X16	Y16	Z16	X17	Y17	Z17	X18	Y18	Z18	X19	Y19	Z19	X20	Y20	Z20	X21	Y21	Z21	X22	Y22	Z22	X23	Y23	Z23	X24	Y24	Z24	X25	Y25	Z25	X26	Y26	Z26	X27	Y27	Z27	
26	0.5652173913043478	0.31905911174773277	0.5312852050587519	0.7930555436805757	0.29711510940992486	0.09211369761555716	0.7713364239658738	0.28375129129554805	-0.35633305459205855	0.816664291456359	0.2862869742526636	-0.35630480942283743	0.5555808261803823	0.3486778039175924	-0.3689728339256286	0.6079516482722784	0.2733023485732072	-0.37575546086935147	0.8189111015588026	0.10423006975154464	0.5224760970533027	0.796388859845951	0.11430016665030343	0.08559446548238536	0.7702954823453207	0.1297504240099306	-0.31004481787306687	0.7405894228975681	0.12231305333221246	-0.344556711071695	0.5434805923500515	0.06480762455327854	-0.35431773187305665	0.6002106415820436	0.14536362554316265	-0.37690897273891055	0.79949530403883	0.20808604836960526	1.084658045422049	0.8414365825069268	0.2162064371875792	1.3510048887118793	0.7537845061425362	0.21284532616513818	1.2150765302328614	0.7055887557740397	0.3631844542049404	1.0221628932725622	0.7923148905409099	0.4244282388148943	0.7364006260898652	0.8082754294275434	0.3344299980934621	0.5721188403847813	0.6103338893278545	0.25668326858125223	0.4923280941947852	0.5305397817484055	0.2775829640309122	0.4753962006999747	0.5245478681928686	0.31659117050040575	0.4512844705864506	0.5761270242307733	0.068723055179649	1.0227264870319512	0.787776836458526	7.806962631414914e-05	0.7269511193716335	0.8141143277118477	0.0750876548318047	0.5078040106060165	0.6479159245211152	0.1267492291754954	0.45216645474345574	0.5659409322673987	0.11661835675343957	0.4202693517717409	0.5633998030614789	0.07990348437542115	0.38986860176535765	0.6303714110268681	
27	0.5869565217391305	0.31933148397205796	0.5318340178765436	0.7921098571368865	0.2964258188266832	0.09287168158917597	0.770174392206443	0.2838699268943565	-0.3564782651922179	0.816764183194711	0.28593642620736637	-0.3570570870701393	0.5543513075151617	0.3484799833915807	-0.36748966921805787	0.605786868487449	0.273632980012203	-0.3757789100556058	0.8191341125516362	0.10406251222690995	0.5227497699757239	0.7955379194184375	0.11406907576928407	0.08516490957842537	0.769919555726481	0.1297660928003184	-0.31015216097801745	0.7407223739093293	0.12167502024864349	-0.3445642883704371	0.5411662882444502	0.0647433105660115	-0.35440657685176086	0.6002050790694295	0.14540082513663455	-0.37643656329890823	0.7996902205020371	0.20727021924657174	1.0843882497813164	0.8412674788737446	0.21494771274315916	1.3509913439457926	0.752350170424707	0.212566793090056	1.2144340459047651	0.7044310376242467	0.36320326792010643	1.022000853906268	0.7924975565306415	0.42580172068487754	0.7351526213970322	0.8133008964297928	0.33939590411519716	0.5708389584982889	0.6138851736354936	0.2669767138012755	0.4950710845626848	0.5252900812596598	0.2859257391701538	0.4784093929430836	0.5264522388026426	0.3276313214376774	0.45130497335857567	0.5783137295923988	0.06835883042692247	1.0235724643561386	0.7853209606275832	-0.0003766495939128181	0.7270820023972913	0.8117465437689716	0.06335197026045403	0.49819375110223485	0.6606607979716392	0.11238621340948982	0.43453746828243417	0.5812357224319551	0.09957353328519428	0.4070004905753647	0.5826468085068521	0.06141708562735955	0.3821309699350071	0.6439368289900884	
28	0.6086956521739131	0.3197287987065665	0.5323216986642743	0.7910979196914396	0.2960423391559943	0.09365164257035596	0.7688193734815117	0.28402341045059076	-0.3567766114972244	0.8170158457986024	0.2853057388925653	-0.3583439242473268	0.553821528651691	0.3479720310409028	-0.36707607526169234	0.6043162173496668	0.2738825236100339	-0.3758612482045423	0.8193026544048562	0.10375700980819713	0.5230903085591722	0.7944626882325434	0.11382666040503409	0.08476212980792347	0.7695661287458422	0.12979073597061552	-0.3102754916840282	0.7408928094929497	0.12103700857193246	-0.3457189605830865	0.5407107595642306	0.06469643169109413	-0.35450925703597647	0.6001746067631778	0.14542719108188218	-0.37600983578038133	0.7999013716405322	0.20652465609576542	1.0838888083817988	0.8410777338469559	0.21316034822769425	1.3508667284105915	0.7498877141279299	0.21177181401829814	1.2135626064293479	0.7023581172438575	0.36321026824673874	1.021700170173359	0.7927209637554673	0.4275858792728473	0.7336131512603427	0.8192218961184017	0.34454542244513064	0.5678938745684464	0.6203516767843322	0.2769418709211381	0.4948412920762576	0.5243664844819738	0.29292390367810056	0.47706210701118956	0.5333441920408024	0.3352136896401413	0.4506022868316898	0.5823446362764189	0.0681493231636069	1.0243185040407168	0.7827866406713633	-0.0007639410052391535	0.7270422252097326	0.8095129949710022	0.0505183904551239	0.4900106443388925	0.6733098044094952	0.09824220218756757	0.41845419007769635	0.5979070584166017	0.08202955726589434	0.39450734200988224	0.6017009048020283	0.040623882855331625	0.3736018356324643	0.659816146293501	
29	0.6304347826086957	0.32024496158616844	0.5326979104821679	0.7902271235598441	0.29601143754482434	0.09461686235616718	0.7672696259863093	0.2841664268404285	-0.35713777800567137	0.8172450627554175	0.2845109005827932	-0.3596368972106183	0.5536010271427183	0.3470548208118538	-0.3677883035002087	0.6028454927753378	0.27407841641227165	-0.3760546306180174	0.8194304832857388	0.10344269696006997	0.5234060899630113	0.793403939031545	0.11363085515294842	0.08445170918350742	0.7692883933158567	0.1298249631259669	-0.3104058675059521	0.7410859737119176	0.12038844354755522	-0.34772989857367775	0.5421130393252851	0.06467065880950845	-0.3545962140401449	0.6001056535814614	0.14545814039077612	-0.3758698509767199	0.8001896859186283	0.20595284347755724	1.08311205504683	0.8411712275347746	0.21100934665312138	1.3504699682875403	0.7469664907394982	0.21052716604293498	1.2124937130958846	0.6997379637711678	0.3632212349076039	1.0211820487659762	0.7928996737484838	0.4292495701024089	0.732279544166805	0.8245077031123884	0.35018133924654116	0.5633660244417146	0.6292138423499702	0.2860133830808096	0.49125207879805144	0.5287747595772143	0.2996753601501466	0.47205260166155133	0.5437305906928225	0.3408509789817264	0.44932787756644266	0.5880069310460935	0.06788147867340955	1.0246231526445166	0.7805458823739241	-0.001046838636134085	0.7268227535935388	0.8076896308444128	0.03717363950648968	0.4830981314586894	0.6852294641680239	0.08439653955945842	0.4054498957892524	0.6138384507982295	0.06339992717225973	0.3835690338903518	0.6185601976703798	0.019933150485554475	0.3671571561979782	0.6728231570037688	
30	0.6521739130434783	0.32082929368758295	0.5329979585539788	0.7895445538811783	0.296321972653831	0.09571051325812907	0.7656385948589107	0.28421755297116563	-0.3573247307919726	0.8172758764355582	0.2836713015217474	-0.3604102329603947	0.5532372014863517	0.3457072077226102	-0.36911967476813595	0.6009092892727291	0.27424887217315885	-0.37642317367095185	0.8195133245659204	0.10320658575745723	0.5236863950069124	0.7924968813943821	0.11354393906703268	0.08427755945701315	0.7691371689882261	0.12986945311997108	-0.31053518819480547	0.7412839098809157	0.11970205835235356	-0.3499121884326569	0.5443915798151494	0.0646554378242251	-0.3546429441291508	0.6000147936900178	0.14554001853981607	-0.3761337345202366	0.80069718518893	0.20536792475597643	1.0823126374254073	0.8412594444568868	0.20869836245596834	1.3496997899080327	0.7440786469615093	0.20882472072232194	1.211349429006592	0.6968615710847356	0.36328700291051286	1.0204682780000787	0.7930168567459127	0.4303827038780042	0.7315603503535542	0.8282207611313892	0.3565095013537379	0.5575647970421302	0.6396971806317733	0.2948255087694991	0.4851640639157747	0.5375689166459122	0.30797739357205167	0.46597578586697896	0.5542816268970692	0.3459270885515347	0.4475332182802429	0.5949966782907006	0.06725592733527094	1.0241760057266132	0.7794581187276797	-0.0011761891605983296	0.72629895117842	0.8066303762285489	0.024021041167874874	0.4779750373260276	0.6957866295735868	0.06957381908446697	0.39490637282459684	0.6310854700383719	0.04322112469703407	0.374672808431005	0.6332369287849956	0.0016455059415888405	0.3642617264532875	0.6808242761998253	
